<svg width="24" height="23" viewBox="0 0 24 23" fill="none" xmlns="http://www.w3.org/2000/svg">
<g filter="url(#filter0_d_0_201)">
<path fill-rule="evenodd" clip-rule="evenodd" d="M4.39024 8.6712C4.39024 5.90196 9.00449 1.29367 9.85366 0.469126C10.7028 1.29367 15.3171 5.90196 15.3171 8.6712C15.3171 11.714 12.8661 14.1892 9.85366 14.1892C6.84117 14.1892 4.39024 11.714 4.39024 8.6712ZM4 8.6712C4 11.9311 6.62595 14.5833 9.85366 14.5833C13.0814 14.5833 15.7073 11.9311 15.7073 8.6712C15.7073 5.46585 10.2201 0.27245 9.98654 0.0529134C9.91161 -0.0176378 9.79571 -0.0176378 9.72078 0.0529134C9.48722 0.27245 4 5.46585 4 8.6712ZM13.6045 14.5583C13.7842 14.5749 13.9666 14.5833 14.1463 14.5833C17.374 14.5833 20 11.9312 20 8.67122C20 5.46587 14.5128 0.27247 14.2792 0.0529331C14.2043 -0.0176181 14.0884 -0.0176181 14.0135 0.0529331L14.0129 0.0534485C13.991 0.0741036 13.3654 0.66463 12.5483 1.54574C12.4745 1.62516 12.4786 1.74991 12.5573 1.8242C12.6357 1.8985 12.7592 1.89436 12.8332 1.81514C13.4287 1.17288 13.9206 0.6875 14.1461 0.469146C14.9949 1.2931 19.6098 5.90179 19.6098 8.67122C19.6098 11.7138 17.1588 14.1892 14.1463 14.1892C13.9783 14.1892 13.808 14.1813 13.6402 14.1657C13.5321 14.1559 13.4379 14.2357 13.4281 14.3441C13.4181 14.4525 13.4972 14.5483 13.6045 14.5583Z" fill="#6E6E6E"/>
</g>
<defs>
<filter id="filter0_d_0_201" x="0" y="0" width="24" height="23" filterUnits="userSpaceOnUse" color-interpolation-filters="sRGB">
<feFlood flood-opacity="0" result="BackgroundImageFix"/>
<feColorMatrix in="SourceAlpha" type="matrix" values="0 0 0 0 0 0 0 0 0 0 0 0 0 0 0 0 0 0 127 0" result="hardAlpha"/>
<feOffset dy="4"/>
<feGaussianBlur stdDeviation="2"/>
<feComposite in2="hardAlpha" operator="out"/>
<feColorMatrix type="matrix" values="0 0 0 0 0 0 0 0 0 0 0 0 0 0 0 0 0 0 0.25 0"/>
<feBlend mode="normal" in2="BackgroundImageFix" result="effect1_dropShadow_0_201"/>
<feBlend mode="normal" in="SourceGraphic" in2="effect1_dropShadow_0_201" result="shape"/>
</filter>
</defs>
</svg>
